<svg width="508" height="146" fill="none" xmlns="http://www.w3.org/2000/svg"><path d="M20.894 64.219c8.843 0 16.241-2.435 16.241-12.808V40.768c0-5.862-2.797-9.11-6.947-10.733 3.248-1.353 5.052-4.78 5.052-8.298v-9.11c0-9.29-5.594-11.545-13.985-11.545H1.044v2.616l3.429 2.345v52.855l-4.06 2.705v2.616h20.481zm6.858-12.808c0 5.232-1.534 7.396-6.858 7.396h-9.203v-.45c1.534-.542 1.895-1.354 1.895-2.977V33.01h6.496c5.594 0 7.67 2.526 7.67 7.757V51.41zm-1.895-29.674c0 3.247-1.805 6.765-5.594 6.765h-6.677V6.314h6.677c3.699 0 5.594 2.886 5.594 6.313v9.11zm57.116 28.321h-3.97l-3.067 8.66h-15.34v-.452c1.535-.541 1.896-1.353 1.896-2.796V35.537h8.661l2.346 4.78h2.707V25.074H73.5l-2.346 4.961h-8.661V6.314h12.27l2.527 8.839h4.51V.993H49.68v2.344l3.428 2.345v53.216l-4.06 2.705v2.616h33.925v-14.16zm37.895-43.654v53.035l-3.97 2.164v2.616h17.143v-2.616l-4.06-2.164V5.953l3.429-2.345V.992H99.033v2.616l3.789 2.706-5.143 48.164c-.541 5.863-3.519 5.773-6.496 5.322l-.451 4.419c7.85 2.255 13.173-.27 13.895-9.02l4.962-48.795h11.279zm62.555 10.462C183.423 6.674 176.385 0 165.287 0c-11.008 0-18.046 6.765-18.046 16.866v31.389c0 10.101 7.038 16.866 18.046 16.866 11.098 0 18.136-6.674 18.136-16.866V16.866zm-26.798 0c0-7.125 2.707-10.823 8.662-10.823 6.045 0 8.843 4.87 8.843 10.823v31.389c0 5.862-2.798 10.823-8.843 10.823-5.955 0-8.662-3.788-8.662-10.824V16.867zM233.443.812h-6.226l-.722 3.427h-.271c-2.706-2.976-6.767-3.878-10.647-3.878-10.646 0-17.233 6.043-17.233 16.776v31.298c0 11.455 7.76 16.776 17.865 16.776 10.106 0 17.775-4.87 17.775-16.055V45.73H224.6v3.337c0 6.404-1.894 10.192-8.481 10.192-5.414 0-8.391-3.337-8.391-10.823V17.137c0-7.937 3.879-10.823 8.12-10.823 6.497.09 8.211 4.78 8.211 10.462v1.714h9.384V.812zm36.813 2.796l3.338 2.525-11.459 30.216-3.699 11.906V5.953l3.338-2.345V1.082h-15.88v2.526l3.339 2.345v52.944l-3.97 2.797v2.525h17.143v-2.525l-3.79-2.616 11.008-28.953 3.97-12.357c0 13.079.091 28.051.091 41.13l-4.061 2.796v2.525h17.144v-2.525l-3.97-2.797V5.953l3.338-2.345V1.082h-15.88v2.526zm41.045 2.796h14.617v53.035l-3.97 2.164v2.616h17.143v-2.616l-4.06-2.164V5.953l3.428-2.345V.992h-39.7v2.616l3.429 2.345v53.486l-4.061 2.164v2.616h17.234v-2.616l-4.06-2.164V6.404zm73.088 43.654h-3.97l-3.068 8.66h-15.338v-.452c1.533-.541 1.894-1.353 1.894-2.796V35.537h8.662l2.346 4.78h2.707V25.074h-2.707l-2.346 4.961h-8.662V6.314h12.271l2.527 8.839h4.511V.993h-32.121v2.344l3.429 2.345v53.216l-4.061 2.705v2.616h33.926v-14.16zm15.338 2.706c-.542 5.412-2.978 6.314-7.219 5.863l-.541 14.882h4.692l2.707-9.29h31.76l2.707 9.29h4.692l-.632-14.882h-5.594V6.043l3.429-2.345V1.082h-35.009v2.616l3.88 2.345-4.872 46.721zm11.188-46.27h12.271v52.133h-19.76v-.27c2.707-1.534 2.797-3.699 3.068-6.585l4.421-45.278zm56.121 52.223h-5.864V30.125h5.774c6.045 0 8.391 3.247 8.391 9.02v10.462c0 5.773-2.165 9.11-8.301 9.11zm17.685-19.572c0-11.275-8.03-14.251-17.955-14.251h-5.594V6.404l3.969-2.706V1.082h-17.143v2.616l4.06 2.706v52.944l-3.428 2.346v2.525h18.316c9.745 0 17.775-3.608 17.775-14.612V39.145zM504.03 5.953l3.429-2.345V.992h-15.971v2.616l3.429 2.345v52.944l-4.06 2.706v2.616H508v-2.616l-3.97-2.706V5.953zM21.41 106.716h-3.797l-.44 2.091h-.166c-1.651-1.816-4.128-2.366-6.495-2.366C4.018 106.441 0 110.128 0 116.675v19.091C0 142.754 4.733 146 10.898 146c6.164 0 10.843-2.971 10.843-9.793v-2.091h-5.725v2.036c0 3.906-1.155 6.217-5.173 6.217-3.303 0-5.119-2.036-5.119-6.603v-19.091c0-4.842 2.367-6.602 4.954-6.602 3.962.055 5.008 2.916 5.008 6.382v1.045h5.724v-10.784zm36.583 3.577l1.871 6.327h2.642l-.22-9.794H39.885l-.22 9.794h2.642l1.761-6.327h4.128v31.526l-2.422 1.705v1.871h10.623v-1.871l-2.422-1.705v-31.526h4.018zm22.837 35.102c5.395 0 9.908-1.486 9.908-7.813v-6.492c0-3.576-1.706-5.557-4.238-6.547 1.981-.826 3.082-2.916 3.082-5.062v-5.557c0-5.667-3.412-7.043-8.531-7.043H68.722v1.596l2.092 1.43v32.242l-2.477 1.65v1.596H80.83zm4.184-7.813c0 3.191-.936 4.512-4.183 4.512h-5.614v-.275c.936-.331 1.156-.826 1.156-1.816v-13.645h3.962c3.413 0 4.679 1.541 4.679 4.732v6.492zm-1.156-18.101c0 1.98-1.1 4.126-3.412 4.126h-4.073v-13.534h4.073c2.256 0 3.412 1.76 3.412 3.851v5.557zm37.318-2.971c0-6.217-4.293-10.289-11.063-10.289-6.715 0-11.008 4.127-11.008 10.289v19.146c0 6.163 4.293 10.289 11.008 10.289 6.77 0 11.063-4.071 11.063-10.289V116.51zm-16.347 0c0-4.347 1.651-6.603 5.284-6.603 3.688 0 5.394 2.971 5.394 6.603v19.146c0 3.577-1.706 6.603-5.394 6.603-3.633 0-5.284-2.311-5.284-6.603V116.51zm39.594-8.088l2.036 1.54-6.99 18.432-2.256 7.262v-25.804l2.036-1.43v-1.541h-9.687v1.541l2.037 1.43v32.297l-2.422 1.705v1.541h10.457v-1.541l-2.311-1.595 6.714-17.661 2.422-7.538c0 7.978.055 17.111.055 25.089l-2.477 1.705v1.541h10.458v-1.541l-2.422-1.705v-32.297l2.037-1.43v-1.541h-9.687v1.541zm23.331 33.837v-24.044l-.275-7.097h.275c2.036 10.894 3.798 21.237 5.614 32.186.165 1.045.715 1.541 1.871 1.541h4.568l6.055-34.112h.22l-.165 5.502v25.914l-2.422 1.65v1.596h10.513v-1.596l-2.422-1.65v-32.297l2.146-1.43v-1.541h-7.98c-2.092-.055-2.807.331-3.248 2.366l-4.898 29.05h-.11c-1.266-10.783-2.477-18.046-4.513-28.885-.496-2.09-1.321-2.531-3.358-2.531h-7.981v1.541l2.202 1.43v32.407l-2.312 1.43v1.706h8.532v-1.706l-2.312-1.43zm53.768-33.232c-.881-1.981-1.376-2.201-2.972-2.201h-5.009v1.431l1.597.99 6.824 17.606-7.815 15.901-1.871 1.045v1.596h7.705v-1.596l-1.926-.99 5.504-11.389 4.733 11.774c.881 2.091 1.541 2.201 3.137 2.201h5.119v-1.376l-1.982-1.155-7.375-18.762 7.155-14.69 1.872-1.045v-1.541h-7.596v1.541l1.927.99-5.009 10.399-4.018-10.729zm30.705 4.292h.055l4.293 18.541h-8.641l4.293-18.541zm-5.009 21.677h10.127l1.817 7.758-1.541 1.21v1.431h9.356v-1.706l-1.981-1.21-8.861-35.873h-5.67c-2.807 11.334-5.889 24.649-8.641 36.038l-1.981 1.045v1.706h7.485v-1.706l-1.926-.99 1.816-7.703zm36.105-24.758c3.742 0 5.063 2.035 5.063 5.556v6.878c0 3.521-1.431 5.502-5.118 5.502h-3.523v-17.936h3.578zm10.787 5.556c0-6.712-4.898-8.968-10.842-8.968h-11.173v1.596l2.091 1.43v32.297l-2.477 1.65v1.596h10.458v-1.596l-2.422-1.65v-10.784h3.413c6.054 0 10.952-1.816 10.952-8.693v-6.878zm15.033-2.475h.055l4.293 18.541h-8.641l4.293-18.541zm-5.009 21.677h10.128l1.816 7.758-1.541 1.21v1.431h9.357v-1.706l-1.982-1.21-8.861-35.873h-5.669c-2.807 11.334-5.889 24.649-8.641 36.038l-1.982 1.045v1.706h7.486v-1.706l-1.927-.99 1.816-7.703zm48.709-28.17c-2.092 0-4.513-.275-6.275.936-5.008 3.521-2.972 15.68-9.962 15.68v-13.59l2.092-1.43v-1.596h-9.742v1.596l2.091 1.43v32.297l-2.421 1.65v1.596h10.457v-1.596l-2.477-1.65v-15.626h1.652c3.467 0 4.733 2.751 5.448 6.162l1.597 7.648c.66 3.081 1.871 5.392 5.393 5.392.991 0 2.587-.11 3.688-.715v-2.146c-1.706.385-2.862-1.431-3.247-3.246l-1.706-8.033c-.771-3.521-2.312-6.932-5.174-7.208v-.11c2.532-.825 4.238-9.793 5.449-12.654.715-1.706 1.266-2.696 3.137-2.641v-2.146zm24.075 3.467l1.871 6.327h2.642l-.22-9.794H358.81l-.22 9.794h2.642l1.761-6.327h4.128v31.526l-2.422 1.705v1.871h10.623v-1.871l-2.422-1.705v-31.526h4.018zm31.039 26.464h-2.422l-1.871 5.282h-9.357v-.275c.936-.331 1.156-.826 1.156-1.706v-12.159h5.284l1.431 2.916h1.651v-9.299h-1.651l-1.431 3.027h-5.284v-14.47h7.485l1.541 5.391h2.752v-8.638h-19.594v1.431l2.092 1.43v32.462l-2.477 1.65v1.596h20.695v-8.638zm18.382-26.519c3.743 0 5.064 2.035 5.064 5.556v6.878c0 3.521-1.431 5.502-5.119 5.502h-3.523v-17.936h3.578zm10.788 5.556c0-6.712-4.899-8.968-10.843-8.968h-11.173v1.596l2.091 1.43v32.297l-2.476 1.65v1.596h10.457v-1.596l-2.422-1.65v-10.784h3.413c6.054 0 10.953-1.816 10.953-8.693v-6.878zm29.739.716c0-6.217-4.293-10.289-11.063-10.289-6.715 0-11.008 4.127-11.008 10.289v19.146c0 6.163 4.293 10.289 11.008 10.289 6.77 0 11.063-4.071 11.063-10.289V116.51zm-16.347 0c0-4.347 1.651-6.603 5.284-6.603 3.688 0 5.394 2.971 5.394 6.603v19.146c0 3.577-1.706 6.603-5.394 6.603-3.633 0-5.284-2.311-5.284-6.603V116.51zm30.677 25.749v-24.044l-.275-7.097h.275c2.037 10.894 3.798 21.237 5.614 32.186.165 1.045.716 1.541 1.872 1.541h4.568l6.054-34.112h.22l-.165 5.502v25.914l-2.421 1.65v1.596h10.512v-1.596l-2.422-1.65v-32.297l2.147-1.43v-1.541h-7.981c-2.091-.055-2.807.331-3.247 2.366l-4.899 29.05h-.11c-1.266-10.783-2.476-18.046-4.513-28.885-.495-2.09-1.321-2.531-3.357-2.531h-7.981v1.541l2.202 1.43v32.407l-2.312 1.43v1.706h8.531v-1.706l-2.312-1.43z" fill="#BAA480"/></svg>