<svg width="518" height="156" viewBox="0 0 518 156" fill="none" xmlns="http://www.w3.org/2000/svg">
<g filter="url(#filter0_d)">
<mask id="path-1-outside-1" maskUnits="userSpaceOnUse" x="4" y="0" width="510" height="148" fill="black">
<rect fill="white" x="4" width="510" height="148"/>
<path d="M25.8942 65.219C34.7366 65.219 42.1353 62.7838 42.1353 52.4113V41.7683C42.1353 35.9056 39.3382 32.6585 35.1877 31.035C38.4359 29.6821 40.2405 26.2547 40.2405 22.7371V13.6273C40.2405 4.33722 34.6463 2.08234 26.2551 2.08234H6.04394V4.69801L9.47262 7.04308V59.8975L5.41234 62.6034V65.219H25.8942ZM32.7516 52.4113C32.7516 57.6426 31.2177 59.8073 25.8942 59.8073H16.6909V59.3563C18.2248 58.8152 18.5857 58.0034 18.5857 56.3799V34.0115H25.0821C30.6763 34.0115 32.7516 36.5369 32.7516 41.7683V52.4113ZM30.8568 22.7371C30.8568 25.9841 29.0522 29.5017 25.2626 29.5017H18.5857V7.31367H25.2626C28.962 7.31367 30.8568 10.1999 30.8568 13.6273V22.7371Z"/>
<path d="M87.9734 51.0584H84.0034L80.9356 59.7171C75.7926 59.7171 70.7398 59.7171 65.5968 59.7171V59.2662C67.1307 58.725 67.4916 57.9132 67.4916 56.4701C67.4916 49.7956 67.4916 43.2114 67.4916 36.5369H76.1535L78.4995 41.3173H81.2063C81.2063 36.8977 81.2063 30.4939 81.2063 26.0743H78.4995L76.1535 31.035H67.4916C67.4916 23.0978 67.4916 15.1607 67.4916 7.31367H79.7627L82.2891 16.1528H86.8005V1.99215C75.7926 1.99215 65.687 1.99215 54.6792 1.99215V4.33723L58.1078 6.6823C58.1078 24.3606 58.1078 42.1291 58.1078 59.8975L54.0476 62.6034V65.219C65.4164 65.219 76.6949 65.219 87.9734 65.219V51.0584Z"/>
<path d="M125.868 7.40386V60.4387L121.898 62.6034V65.219H139.041V62.6034L134.981 60.4387V6.95289L138.41 4.60781V1.99215H104.033V4.60781L107.822 7.31367L102.679 55.4779C102.138 61.3406 99.1604 61.2504 96.1828 60.7995L95.7317 65.219C103.582 67.4739 108.905 64.9485 109.627 56.1995L114.589 7.40386H125.868Z"/>
<path d="M188.423 17.8665C188.423 7.67445 181.385 1 170.287 1C159.279 1 152.241 7.76464 152.241 17.8665V49.2545C152.241 59.3563 159.279 66.121 170.287 66.121C181.385 66.121 188.423 59.4465 188.423 49.2545V17.8665ZM161.625 17.8665C161.625 10.7411 164.332 7.04308 170.287 7.04308C176.332 7.04308 179.13 11.9136 179.13 17.8665V49.2545C179.13 55.1172 176.332 60.0779 170.287 60.0779C164.332 60.0779 161.625 56.2897 161.625 49.2545V17.8665Z"/>
<path d="M238.443 1.81176H232.217L231.495 5.23918H231.224C228.518 2.26273 224.457 1.36078 220.577 1.36078C209.931 1.36078 203.344 7.40386 203.344 18.1371C203.344 21.9253 203.344 45.6467 203.344 49.4349C203.344 60.8897 211.104 66.2112 221.209 66.2112C231.315 66.2112 238.984 61.3406 238.984 50.1564V46.729H229.6V50.0662C229.6 56.4701 227.706 60.2583 221.119 60.2583C215.705 60.2583 212.728 56.9211 212.728 49.4349C212.728 45.6467 212.728 21.9253 212.728 18.1371C212.728 10.1999 216.607 7.31367 220.848 7.31367C227.345 7.40386 229.059 12.094 229.059 17.7763V19.49H238.443V1.81176Z"/>
<path d="M275.256 4.60781L278.594 7.13328L267.135 37.3487L263.436 49.2545C263.436 35.8154 263.436 20.392 263.436 6.95289L266.774 4.60781V2.08234H250.894V4.60781L254.233 6.95289C254.233 24.6312 254.233 42.2192 254.233 59.8975L250.263 62.6936V65.219C255.496 65.219 262.173 65.219 267.406 65.219V62.6936L263.616 60.0779L274.624 31.1252L278.594 18.7685C278.594 31.8468 278.685 46.8192 278.685 59.8975L274.624 62.6936V65.219C279.858 65.219 286.534 65.219 291.768 65.219V62.6936L287.798 59.8975C287.798 42.2192 287.798 24.6312 287.798 6.95289L291.136 4.60781V2.08234H275.256V4.60781Z"/>
<path d="M316.301 7.40386H330.918V60.4387L326.948 62.6034V65.219H344.091V62.6034L340.031 60.4387V6.95289L343.459 4.60781V1.99215H303.759V4.60781L307.188 6.95289V60.4387L303.127 62.6034V65.219H320.361V62.6034L316.301 60.4387V7.40386Z"/>
<path d="M389.389 51.0584H385.419L382.351 59.7171C377.208 59.7171 372.156 59.7171 367.013 59.7171V59.2662C368.546 58.725 368.907 57.9132 368.907 56.4701C368.907 49.7956 368.907 43.2114 368.907 36.5369H377.569L379.915 41.3173H382.622C382.622 36.8977 382.622 30.4939 382.622 26.0743H379.915L377.569 31.035H368.907C368.907 23.0978 368.907 15.1607 368.907 7.31367H381.178L383.705 16.1528H388.216V1.99215C377.208 1.99215 367.103 1.99215 356.095 1.99215V4.33723L359.524 6.6823C359.524 24.3606 359.524 42.1291 359.524 59.8975L355.463 62.6034V65.219C366.832 65.219 378.111 65.219 389.389 65.219V51.0584Z"/>
<path d="M404.727 53.7642C404.185 59.176 401.749 60.0779 397.508 59.6269L396.967 74.5092H401.659L404.366 65.219C415.283 65.219 425.208 65.219 436.126 65.219L438.833 74.5092H443.525L442.893 59.6269H437.299V7.04308L440.728 4.69801V2.08234H405.719V4.69801L409.599 7.04308L404.727 53.7642ZM415.915 7.49406H428.186V59.6269H408.426V59.3563C411.133 57.823 411.223 55.6583 411.494 52.7721L415.915 7.49406Z"/>
<path d="M472.036 59.7171H466.172C466.172 49.8858 466.172 40.8663 466.172 31.1252H471.946C477.991 31.1252 480.337 34.3723 480.337 40.1447V50.6074C480.337 56.3799 478.172 59.7171 472.036 59.7171ZM489.721 40.1447C489.721 28.8703 481.691 25.8939 471.766 25.8939H466.172C466.172 20.1214 466.172 13.1764 466.172 7.40386L470.141 4.69801V2.08234C464.998 2.08234 458.231 2.08234 452.998 2.08234V4.69801L457.058 7.40386C457.058 24.9017 457.058 42.8506 457.058 60.3485L453.63 62.6936V65.219H471.946C481.691 65.219 489.721 61.6112 489.721 50.6074V40.1447ZM509.03 6.95289L512.459 4.60781V1.99215H496.488V4.60781L499.917 6.95289C499.917 24.6312 499.917 42.2192 499.917 59.8975L495.857 62.6034V65.219C501.09 65.219 507.857 65.219 513 65.219V62.6034L509.03 59.8975C509.03 42.2192 509.03 24.6312 509.03 6.95289Z"/>
<path d="M26.4103 107.716H22.6126L22.1723 109.807H22.0072C20.356 107.991 17.8792 107.441 15.5125 107.441C9.01787 107.441 5 111.128 5 117.675C5 119.986 5 134.456 5 136.766C5 143.754 9.73338 147 15.8978 147C22.0622 147 26.7405 144.029 26.7405 137.207V135.116H21.0164V137.152C21.0164 141.058 19.8606 143.369 15.8427 143.369C12.5404 143.369 10.7241 141.333 10.7241 136.766C10.7241 134.456 10.7241 119.986 10.7241 117.675C10.7241 112.833 13.0908 111.073 15.6776 111.073C19.6405 111.128 20.6862 113.989 20.6862 117.455V118.5H26.4103V107.716Z"/>
<path d="M62.993 111.293L64.8643 117.62H67.5062L67.286 107.826H44.885L44.6649 117.62H47.3068L49.068 111.293H53.196C53.196 121.801 53.196 132.31 53.196 142.819L50.7742 144.524V146.395C53.9115 146.395 58.2045 146.395 61.3968 146.395V144.524L58.9751 142.819C58.9751 132.31 58.9751 121.801 58.9751 111.293H62.993Z"/>
<path d="M85.8308 146.395C91.2247 146.395 95.7379 144.909 95.7379 138.582V132.09C95.7379 128.514 94.0317 126.533 91.4999 125.543C93.4813 124.717 94.5821 122.627 94.5821 120.481V114.924C94.5821 109.257 91.1697 107.881 86.051 107.881H73.7222V109.477L75.8137 110.907V143.149L73.3369 144.799V146.395H85.8308ZM90.0138 138.582C90.0138 141.773 89.0782 143.094 85.8308 143.094H80.2168V142.819C81.1525 142.488 81.3727 141.993 81.3727 141.003V127.358H85.3355C88.7479 127.358 90.0138 128.899 90.0138 132.09V138.582ZM88.858 120.481C88.858 122.461 87.7572 124.607 85.4456 124.607H81.3727V111.073H85.4456C87.7022 111.073 88.858 112.833 88.858 114.924V120.481Z"/>
<path d="M126.176 117.51C126.176 111.293 121.883 107.221 115.113 107.221C108.398 107.221 104.105 111.348 104.105 117.51V136.656C104.105 142.819 108.398 146.945 115.113 146.945C121.883 146.945 126.176 142.874 126.176 136.656V117.51ZM109.829 117.51C109.829 113.163 111.48 110.907 115.113 110.907C118.801 110.907 120.507 113.878 120.507 117.51V136.656C120.507 140.233 118.801 143.259 115.113 143.259C111.48 143.259 109.829 140.948 109.829 136.656V117.51Z"/>
<path d="M149.423 109.422L151.459 110.962L144.469 129.394L142.213 136.656C142.213 128.459 142.213 119.05 142.213 110.852L144.249 109.422V107.881H134.562V109.422L136.599 110.852C136.599 121.636 136.599 132.365 136.599 143.149L134.177 144.854V146.395C137.369 146.395 141.442 146.395 144.634 146.395V144.854L142.323 143.259L149.037 125.598L151.459 118.06C151.459 126.038 151.514 135.171 151.514 143.149L149.037 144.854V146.395C152.23 146.395 156.303 146.395 159.495 146.395V144.854L157.073 143.149C157.073 132.365 157.073 121.636 157.073 110.852L159.11 109.422V107.881H149.423V109.422Z"/>
<path d="M172.754 143.259C172.754 135.226 172.754 127.248 172.754 119.215L172.479 112.118H172.754C174.79 123.012 176.552 133.355 178.368 144.304C178.533 145.349 179.083 145.845 180.239 145.845H184.807L190.862 111.733H191.082L190.917 117.235C190.917 125.873 190.917 134.511 190.917 143.149L188.495 144.799V146.395C191.632 146.395 195.87 146.395 199.008 146.395V144.799L196.586 143.149C196.586 132.365 196.586 121.636 196.586 110.852L198.732 109.422V107.881C195.595 107.881 193.889 107.881 190.752 107.881C188.66 107.826 187.945 108.212 187.504 110.247L182.606 139.297H182.496C181.23 128.514 180.019 121.251 177.983 110.412C177.487 108.322 176.662 107.881 174.625 107.881H166.644V109.422L168.846 110.852C168.846 121.636 168.846 132.475 168.846 143.259L166.534 144.689V146.395C169.231 146.395 172.369 146.395 175.066 146.395V144.689L172.754 143.259Z"/>
<path d="M226.522 110.027C225.641 108.046 225.146 107.826 223.55 107.826H218.541V109.257L220.138 110.247L226.962 127.853L219.147 143.754L217.276 144.799V146.395H224.981V144.799L223.055 143.809L228.559 132.42L233.292 144.194C234.173 146.285 234.833 146.395 236.429 146.395H241.548V145.019L239.566 143.864L232.191 125.102L239.346 110.412L241.218 109.367V107.826H233.622V109.367L235.549 110.357L230.54 120.756L226.522 110.027Z"/>
<path d="M257.227 114.319H257.282L261.575 132.86H252.934L257.227 114.319ZM252.218 135.996H262.345L264.162 143.754L262.621 144.964V146.395H271.977V144.689L269.996 143.479L261.135 107.606H255.465C252.658 118.94 249.576 132.255 246.824 143.644L244.843 144.689V146.395H252.328V144.689L250.402 143.699L252.218 135.996Z"/>
<path d="M288.323 111.238C292.065 111.238 293.386 113.273 293.386 116.794V123.672C293.386 127.193 291.955 129.174 288.268 129.174H284.745C284.745 123.232 284.745 117.235 284.745 111.238H288.323ZM299.11 116.794C299.11 110.082 294.212 107.826 288.268 107.826H277.095V109.422L279.186 110.852C279.186 121.526 279.186 132.475 279.186 143.149L276.709 144.799V146.395C279.902 146.395 284.03 146.395 287.167 146.395V144.799L284.745 143.149C284.745 139.627 284.745 135.886 284.745 132.365H288.158C294.212 132.365 299.11 130.549 299.11 123.672V116.794Z"/>
<path d="M314.143 114.319H314.198L318.491 132.86H309.85L314.143 114.319ZM309.134 135.996H319.262L321.078 143.754L319.537 144.964V146.395H328.894V144.689L326.912 143.479L318.051 107.606H312.382C309.575 118.94 306.493 132.255 303.741 143.644L301.759 144.689V146.395H309.245V144.689L307.318 143.699L309.134 135.996Z"/>
<path d="M357.843 107.826C355.751 107.826 353.33 107.551 351.568 108.762C346.56 112.283 348.596 124.442 341.606 124.442V110.852L343.698 109.422V107.826H333.956V109.422L336.047 110.852C336.047 121.636 336.047 132.365 336.047 143.149L333.626 144.799V146.395C336.763 146.395 340.891 146.395 344.083 146.395V144.799L341.606 143.149C341.606 137.922 341.606 132.75 341.606 127.523H343.258C346.725 127.523 347.991 130.274 348.706 133.685L350.303 141.333C350.963 144.414 352.174 146.725 355.696 146.725C356.687 146.725 358.283 146.615 359.384 146.01V143.864C357.678 144.249 356.522 142.433 356.137 140.618L354.431 132.585C353.66 129.064 352.119 125.653 349.257 125.377V125.267C351.789 124.442 353.495 115.474 354.706 112.613C355.421 110.907 355.972 109.917 357.843 109.972V107.826Z"/>
<path d="M381.918 111.293L383.789 117.62H386.431L386.211 107.826H363.81L363.59 117.62H366.232L367.993 111.293H372.121C372.121 121.801 372.121 132.31 372.121 142.819L369.699 144.524V146.395C372.836 146.395 377.129 146.395 380.322 146.395V144.524L377.9 142.819C377.9 132.31 377.9 121.801 377.9 111.293H381.918Z"/>
<path d="M412.957 137.757H410.535L408.664 143.039C405.526 143.039 402.444 143.039 399.307 143.039V142.764C400.243 142.433 400.463 141.938 400.463 141.058C400.463 136.987 400.463 132.97 400.463 128.899H405.747L407.178 131.815H408.829C408.829 129.119 408.829 125.212 408.829 122.516H407.178L405.747 125.543H400.463C400.463 120.701 400.463 115.859 400.463 111.073H407.948L409.489 116.464H412.241V107.826C405.526 107.826 399.362 107.826 392.647 107.826V109.257L394.739 110.687C394.739 121.471 394.739 132.31 394.739 143.149L392.262 144.799V146.395C399.197 146.395 406.077 146.395 412.957 146.395V137.757Z"/>
<path d="M431.339 111.238C435.082 111.238 436.403 113.273 436.403 116.794V123.672C436.403 127.193 434.972 129.174 431.284 129.174H427.761C427.761 123.232 427.761 117.235 427.761 111.238H431.339ZM442.127 116.794C442.127 110.082 437.228 107.826 431.284 107.826H420.111V109.422L422.202 110.852C422.202 121.526 422.202 132.475 422.202 143.149L419.726 144.799V146.395C422.918 146.395 427.046 146.395 430.183 146.395V144.799L427.761 143.149C427.761 139.627 427.761 135.886 427.761 132.365H431.174C437.228 132.365 442.127 130.549 442.127 123.672V116.794Z"/>
<path d="M471.866 117.51C471.866 111.293 467.573 107.221 460.803 107.221C454.088 107.221 449.795 111.348 449.795 117.51V136.656C449.795 142.819 454.088 146.945 460.803 146.945C467.573 146.945 471.866 142.874 471.866 136.656V117.51ZM455.519 117.51C455.519 113.163 457.17 110.907 460.803 110.907C464.491 110.907 466.197 113.878 466.197 117.51V136.656C466.197 140.233 464.491 143.259 460.803 143.259C457.17 143.259 455.519 140.948 455.519 136.656V117.51Z"/>
<path d="M486.196 143.259C486.196 135.226 486.196 127.248 486.196 119.215L485.921 112.118H486.196C488.233 123.012 489.994 133.355 491.81 144.304C491.975 145.349 492.526 145.845 493.682 145.845H498.25L504.304 111.733H504.524L504.359 117.235C504.359 125.873 504.359 134.511 504.359 143.149L501.938 144.799V146.395C505.075 146.395 509.313 146.395 512.45 146.395V144.799L510.028 143.149C510.028 132.365 510.028 121.636 510.028 110.852L512.175 109.422V107.881C509.038 107.881 507.331 107.881 504.194 107.881C502.103 107.826 501.387 108.212 500.947 110.247L496.048 139.297H495.938C494.672 128.514 493.462 121.251 491.425 110.412C490.93 108.322 490.104 107.881 488.068 107.881H480.087V109.422L482.289 110.852C482.289 121.636 482.289 132.475 482.289 143.259L479.977 144.689V146.395C482.674 146.395 485.811 146.395 488.508 146.395V144.689L486.196 143.259Z"/>
</mask>
<path d="M25.8942 65.219C34.7366 65.219 42.1353 62.7838 42.1353 52.4113V41.7683C42.1353 35.9056 39.3382 32.6585 35.1877 31.035C38.4359 29.6821 40.2405 26.2547 40.2405 22.7371V13.6273C40.2405 4.33722 34.6463 2.08234 26.2551 2.08234H6.04394V4.69801L9.47262 7.04308V59.8975L5.41234 62.6034V65.219H25.8942ZM32.7516 52.4113C32.7516 57.6426 31.2177 59.8073 25.8942 59.8073H16.6909V59.3563C18.2248 58.8152 18.5857 58.0034 18.5857 56.3799V34.0115H25.0821C30.6763 34.0115 32.7516 36.5369 32.7516 41.7683V52.4113ZM30.8568 22.7371C30.8568 25.9841 29.0522 29.5017 25.2626 29.5017H18.5857V7.31367H25.2626C28.962 7.31367 30.8568 10.1999 30.8568 13.6273V22.7371Z" fill="#BAA480"/>
<path d="M87.9734 51.0584H84.0034L80.9356 59.7171C75.7926 59.7171 70.7398 59.7171 65.5968 59.7171V59.2662C67.1307 58.725 67.4916 57.9132 67.4916 56.4701C67.4916 49.7956 67.4916 43.2114 67.4916 36.5369H76.1535L78.4995 41.3173H81.2063C81.2063 36.8977 81.2063 30.4939 81.2063 26.0743H78.4995L76.1535 31.035H67.4916C67.4916 23.0978 67.4916 15.1607 67.4916 7.31367H79.7627L82.2891 16.1528H86.8005V1.99215C75.7926 1.99215 65.687 1.99215 54.6792 1.99215V4.33723L58.1078 6.6823C58.1078 24.3606 58.1078 42.1291 58.1078 59.8975L54.0476 62.6034V65.219C65.4164 65.219 76.6949 65.219 87.9734 65.219V51.0584Z" fill="#BAA480"/>
<path d="M125.868 7.40386V60.4387L121.898 62.6034V65.219H139.041V62.6034L134.981 60.4387V6.95289L138.41 4.60781V1.99215H104.033V4.60781L107.822 7.31367L102.679 55.4779C102.138 61.3406 99.1604 61.2504 96.1828 60.7995L95.7317 65.219C103.582 67.4739 108.905 64.9485 109.627 56.1995L114.589 7.40386H125.868Z" fill="#BAA480"/>
<path d="M188.423 17.8665C188.423 7.67445 181.385 1 170.287 1C159.279 1 152.241 7.76464 152.241 17.8665V49.2545C152.241 59.3563 159.279 66.121 170.287 66.121C181.385 66.121 188.423 59.4465 188.423 49.2545V17.8665ZM161.625 17.8665C161.625 10.7411 164.332 7.04308 170.287 7.04308C176.332 7.04308 179.13 11.9136 179.13 17.8665V49.2545C179.13 55.1172 176.332 60.0779 170.287 60.0779C164.332 60.0779 161.625 56.2897 161.625 49.2545V17.8665Z" fill="#BAA480"/>
<path d="M238.443 1.81176H232.217L231.495 5.23918H231.224C228.518 2.26273 224.457 1.36078 220.577 1.36078C209.931 1.36078 203.344 7.40386 203.344 18.1371C203.344 21.9253 203.344 45.6467 203.344 49.4349C203.344 60.8897 211.104 66.2112 221.209 66.2112C231.315 66.2112 238.984 61.3406 238.984 50.1564V46.729H229.6V50.0662C229.6 56.4701 227.706 60.2583 221.119 60.2583C215.705 60.2583 212.728 56.9211 212.728 49.4349C212.728 45.6467 212.728 21.9253 212.728 18.1371C212.728 10.1999 216.607 7.31367 220.848 7.31367C227.345 7.40386 229.059 12.094 229.059 17.7763V19.49H238.443V1.81176Z" fill="#BAA480"/>
<path d="M275.256 4.60781L278.594 7.13328L267.135 37.3487L263.436 49.2545C263.436 35.8154 263.436 20.392 263.436 6.95289L266.774 4.60781V2.08234H250.894V4.60781L254.233 6.95289C254.233 24.6312 254.233 42.2192 254.233 59.8975L250.263 62.6936V65.219C255.496 65.219 262.173 65.219 267.406 65.219V62.6936L263.616 60.0779L274.624 31.1252L278.594 18.7685C278.594 31.8468 278.685 46.8192 278.685 59.8975L274.624 62.6936V65.219C279.858 65.219 286.534 65.219 291.768 65.219V62.6936L287.798 59.8975C287.798 42.2192 287.798 24.6312 287.798 6.95289L291.136 4.60781V2.08234H275.256V4.60781Z" fill="#BAA480"/>
<path d="M316.301 7.40386H330.918V60.4387L326.948 62.6034V65.219H344.091V62.6034L340.031 60.4387V6.95289L343.459 4.60781V1.99215H303.759V4.60781L307.188 6.95289V60.4387L303.127 62.6034V65.219H320.361V62.6034L316.301 60.4387V7.40386Z" fill="#BAA480"/>
<path d="M389.389 51.0584H385.419L382.351 59.7171C377.208 59.7171 372.156 59.7171 367.013 59.7171V59.2662C368.546 58.725 368.907 57.9132 368.907 56.4701C368.907 49.7956 368.907 43.2114 368.907 36.5369H377.569L379.915 41.3173H382.622C382.622 36.8977 382.622 30.4939 382.622 26.0743H379.915L377.569 31.035H368.907C368.907 23.0978 368.907 15.1607 368.907 7.31367H381.178L383.705 16.1528H388.216V1.99215C377.208 1.99215 367.103 1.99215 356.095 1.99215V4.33723L359.524 6.6823C359.524 24.3606 359.524 42.1291 359.524 59.8975L355.463 62.6034V65.219C366.832 65.219 378.111 65.219 389.389 65.219V51.0584Z" fill="#BAA480"/>
<path d="M404.727 53.7642C404.185 59.176 401.749 60.0779 397.508 59.6269L396.967 74.5092H401.659L404.366 65.219C415.283 65.219 425.208 65.219 436.126 65.219L438.833 74.5092H443.525L442.893 59.6269H437.299V7.04308L440.728 4.69801V2.08234H405.719V4.69801L409.599 7.04308L404.727 53.7642ZM415.915 7.49406H428.186V59.6269H408.426V59.3563C411.133 57.823 411.223 55.6583 411.494 52.7721L415.915 7.49406Z" fill="#BAA480"/>
<path d="M472.036 59.7171H466.172C466.172 49.8858 466.172 40.8663 466.172 31.1252H471.946C477.991 31.1252 480.337 34.3723 480.337 40.1447V50.6074C480.337 56.3799 478.172 59.7171 472.036 59.7171ZM489.721 40.1447C489.721 28.8703 481.691 25.8939 471.766 25.8939H466.172C466.172 20.1214 466.172 13.1764 466.172 7.40386L470.141 4.69801V2.08234C464.998 2.08234 458.231 2.08234 452.998 2.08234V4.69801L457.058 7.40386C457.058 24.9017 457.058 42.8506 457.058 60.3485L453.63 62.6936V65.219H471.946C481.691 65.219 489.721 61.6112 489.721 50.6074V40.1447ZM509.03 6.95289L512.459 4.60781V1.99215H496.488V4.60781L499.917 6.95289C499.917 24.6312 499.917 42.2192 499.917 59.8975L495.857 62.6034V65.219C501.09 65.219 507.857 65.219 513 65.219V62.6034L509.03 59.8975C509.03 42.2192 509.03 24.6312 509.03 6.95289Z" fill="#BAA480"/>
<path d="M26.4103 107.716H22.6126L22.1723 109.807H22.0072C20.356 107.991 17.8792 107.441 15.5125 107.441C9.01787 107.441 5 111.128 5 117.675C5 119.986 5 134.456 5 136.766C5 143.754 9.73338 147 15.8978 147C22.0622 147 26.7405 144.029 26.7405 137.207V135.116H21.0164V137.152C21.0164 141.058 19.8606 143.369 15.8427 143.369C12.5404 143.369 10.7241 141.333 10.7241 136.766C10.7241 134.456 10.7241 119.986 10.7241 117.675C10.7241 112.833 13.0908 111.073 15.6776 111.073C19.6405 111.128 20.6862 113.989 20.6862 117.455V118.5H26.4103V107.716Z" fill="#BAA480"/>
<path d="M62.993 111.293L64.8643 117.62H67.5062L67.286 107.826H44.885L44.6649 117.62H47.3068L49.068 111.293H53.196C53.196 121.801 53.196 132.31 53.196 142.819L50.7742 144.524V146.395C53.9115 146.395 58.2045 146.395 61.3968 146.395V144.524L58.9751 142.819C58.9751 132.31 58.9751 121.801 58.9751 111.293H62.993Z" fill="#BAA480"/>
<path d="M85.8308 146.395C91.2247 146.395 95.7379 144.909 95.7379 138.582V132.09C95.7379 128.514 94.0317 126.533 91.4999 125.543C93.4813 124.717 94.5821 122.627 94.5821 120.481V114.924C94.5821 109.257 91.1697 107.881 86.051 107.881H73.7222V109.477L75.8137 110.907V143.149L73.3369 144.799V146.395H85.8308ZM90.0138 138.582C90.0138 141.773 89.0782 143.094 85.8308 143.094H80.2168V142.819C81.1525 142.488 81.3727 141.993 81.3727 141.003V127.358H85.3355C88.7479 127.358 90.0138 128.899 90.0138 132.09V138.582ZM88.858 120.481C88.858 122.461 87.7572 124.607 85.4456 124.607H81.3727V111.073H85.4456C87.7022 111.073 88.858 112.833 88.858 114.924V120.481Z" fill="#BAA480"/>
<path d="M126.176 117.51C126.176 111.293 121.883 107.221 115.113 107.221C108.398 107.221 104.105 111.348 104.105 117.51V136.656C104.105 142.819 108.398 146.945 115.113 146.945C121.883 146.945 126.176 142.874 126.176 136.656V117.51ZM109.829 117.51C109.829 113.163 111.48 110.907 115.113 110.907C118.801 110.907 120.507 113.878 120.507 117.51V136.656C120.507 140.233 118.801 143.259 115.113 143.259C111.48 143.259 109.829 140.948 109.829 136.656V117.51Z" fill="#BAA480"/>
<path d="M149.423 109.422L151.459 110.962L144.469 129.394L142.213 136.656C142.213 128.459 142.213 119.05 142.213 110.852L144.249 109.422V107.881H134.562V109.422L136.599 110.852C136.599 121.636 136.599 132.365 136.599 143.149L134.177 144.854V146.395C137.369 146.395 141.442 146.395 144.634 146.395V144.854L142.323 143.259L149.037 125.598L151.459 118.06C151.459 126.038 151.514 135.171 151.514 143.149L149.037 144.854V146.395C152.23 146.395 156.303 146.395 159.495 146.395V144.854L157.073 143.149C157.073 132.365 157.073 121.636 157.073 110.852L159.11 109.422V107.881H149.423V109.422Z" fill="#BAA480"/>
<path d="M172.754 143.259C172.754 135.226 172.754 127.248 172.754 119.215L172.479 112.118H172.754C174.79 123.012 176.552 133.355 178.368 144.304C178.533 145.349 179.083 145.845 180.239 145.845H184.807L190.862 111.733H191.082L190.917 117.235C190.917 125.873 190.917 134.511 190.917 143.149L188.495 144.799V146.395C191.632 146.395 195.87 146.395 199.008 146.395V144.799L196.586 143.149C196.586 132.365 196.586 121.636 196.586 110.852L198.732 109.422V107.881C195.595 107.881 193.889 107.881 190.752 107.881C188.66 107.826 187.945 108.212 187.504 110.247L182.606 139.297H182.496C181.23 128.514 180.019 121.251 177.983 110.412C177.487 108.322 176.662 107.881 174.625 107.881H166.644V109.422L168.846 110.852C168.846 121.636 168.846 132.475 168.846 143.259L166.534 144.689V146.395C169.231 146.395 172.369 146.395 175.066 146.395V144.689L172.754 143.259Z" fill="#BAA480"/>
<path d="M226.522 110.027C225.641 108.046 225.146 107.826 223.55 107.826H218.541V109.257L220.138 110.247L226.962 127.853L219.147 143.754L217.276 144.799V146.395H224.981V144.799L223.055 143.809L228.559 132.42L233.292 144.194C234.173 146.285 234.833 146.395 236.429 146.395H241.548V145.019L239.566 143.864L232.191 125.102L239.346 110.412L241.218 109.367V107.826H233.622V109.367L235.549 110.357L230.54 120.756L226.522 110.027Z" fill="#BAA480"/>
<path d="M257.227 114.319H257.282L261.575 132.86H252.934L257.227 114.319ZM252.218 135.996H262.345L264.162 143.754L262.621 144.964V146.395H271.977V144.689L269.996 143.479L261.135 107.606H255.465C252.658 118.94 249.576 132.255 246.824 143.644L244.843 144.689V146.395H252.328V144.689L250.402 143.699L252.218 135.996Z" fill="#BAA480"/>
<path d="M288.323 111.238C292.065 111.238 293.386 113.273 293.386 116.794V123.672C293.386 127.193 291.955 129.174 288.268 129.174H284.745C284.745 123.232 284.745 117.235 284.745 111.238H288.323ZM299.11 116.794C299.11 110.082 294.212 107.826 288.268 107.826H277.095V109.422L279.186 110.852C279.186 121.526 279.186 132.475 279.186 143.149L276.709 144.799V146.395C279.902 146.395 284.03 146.395 287.167 146.395V144.799L284.745 143.149C284.745 139.627 284.745 135.886 284.745 132.365H288.158C294.212 132.365 299.11 130.549 299.11 123.672V116.794Z" fill="#BAA480"/>
<path d="M314.143 114.319H314.198L318.491 132.86H309.85L314.143 114.319ZM309.134 135.996H319.262L321.078 143.754L319.537 144.964V146.395H328.894V144.689L326.912 143.479L318.051 107.606H312.382C309.575 118.94 306.493 132.255 303.741 143.644L301.759 144.689V146.395H309.245V144.689L307.318 143.699L309.134 135.996Z" fill="#BAA480"/>
<path d="M357.843 107.826C355.751 107.826 353.33 107.551 351.568 108.762C346.56 112.283 348.596 124.442 341.606 124.442V110.852L343.698 109.422V107.826H333.956V109.422L336.047 110.852C336.047 121.636 336.047 132.365 336.047 143.149L333.626 144.799V146.395C336.763 146.395 340.891 146.395 344.083 146.395V144.799L341.606 143.149C341.606 137.922 341.606 132.75 341.606 127.523H343.258C346.725 127.523 347.991 130.274 348.706 133.685L350.303 141.333C350.963 144.414 352.174 146.725 355.696 146.725C356.687 146.725 358.283 146.615 359.384 146.01V143.864C357.678 144.249 356.522 142.433 356.137 140.618L354.431 132.585C353.66 129.064 352.119 125.653 349.257 125.377V125.267C351.789 124.442 353.495 115.474 354.706 112.613C355.421 110.907 355.972 109.917 357.843 109.972V107.826Z" fill="#BAA480"/>
<path d="M381.918 111.293L383.789 117.62H386.431L386.211 107.826H363.81L363.59 117.62H366.232L367.993 111.293H372.121C372.121 121.801 372.121 132.31 372.121 142.819L369.699 144.524V146.395C372.836 146.395 377.129 146.395 380.322 146.395V144.524L377.9 142.819C377.9 132.31 377.9 121.801 377.9 111.293H381.918Z" fill="#BAA480"/>
<path d="M412.957 137.757H410.535L408.664 143.039C405.526 143.039 402.444 143.039 399.307 143.039V142.764C400.243 142.433 400.463 141.938 400.463 141.058C400.463 136.987 400.463 132.97 400.463 128.899H405.747L407.178 131.815H408.829C408.829 129.119 408.829 125.212 408.829 122.516H407.178L405.747 125.543H400.463C400.463 120.701 400.463 115.859 400.463 111.073H407.948L409.489 116.464H412.241V107.826C405.526 107.826 399.362 107.826 392.647 107.826V109.257L394.739 110.687C394.739 121.471 394.739 132.31 394.739 143.149L392.262 144.799V146.395C399.197 146.395 406.077 146.395 412.957 146.395V137.757Z" fill="#BAA480"/>
<path d="M431.339 111.238C435.082 111.238 436.403 113.273 436.403 116.794V123.672C436.403 127.193 434.972 129.174 431.284 129.174H427.761C427.761 123.232 427.761 117.235 427.761 111.238H431.339ZM442.127 116.794C442.127 110.082 437.228 107.826 431.284 107.826H420.111V109.422L422.202 110.852C422.202 121.526 422.202 132.475 422.202 143.149L419.726 144.799V146.395C422.918 146.395 427.046 146.395 430.183 146.395V144.799L427.761 143.149C427.761 139.627 427.761 135.886 427.761 132.365H431.174C437.228 132.365 442.127 130.549 442.127 123.672V116.794Z" fill="#BAA480"/>
<path d="M471.866 117.51C471.866 111.293 467.573 107.221 460.803 107.221C454.088 107.221 449.795 111.348 449.795 117.51V136.656C449.795 142.819 454.088 146.945 460.803 146.945C467.573 146.945 471.866 142.874 471.866 136.656V117.51ZM455.519 117.51C455.519 113.163 457.17 110.907 460.803 110.907C464.491 110.907 466.197 113.878 466.197 117.51V136.656C466.197 140.233 464.491 143.259 460.803 143.259C457.17 143.259 455.519 140.948 455.519 136.656V117.51Z" fill="#BAA480"/>
<path d="M486.196 143.259C486.196 135.226 486.196 127.248 486.196 119.215L485.921 112.118H486.196C488.233 123.012 489.994 133.355 491.81 144.304C491.975 145.349 492.526 145.845 493.682 145.845H498.25L504.304 111.733H504.524L504.359 117.235C504.359 125.873 504.359 134.511 504.359 143.149L501.938 144.799V146.395C505.075 146.395 509.313 146.395 512.45 146.395V144.799L510.028 143.149C510.028 132.365 510.028 121.636 510.028 110.852L512.175 109.422V107.881C509.038 107.881 507.331 107.881 504.194 107.881C502.103 107.826 501.387 108.212 500.947 110.247L496.048 139.297H495.938C494.672 128.514 493.462 121.251 491.425 110.412C490.93 108.322 490.104 107.881 488.068 107.881H480.087V109.422L482.289 110.852C482.289 121.636 482.289 132.475 482.289 143.259L479.977 144.689V146.395C482.674 146.395 485.811 146.395 488.508 146.395V144.689L486.196 143.259Z" fill="#BAA480"/>
<path d="M25.8942 65.219C34.7366 65.219 42.1353 62.7838 42.1353 52.4113V41.7683C42.1353 35.9056 39.3382 32.6585 35.1877 31.035C38.4359 29.6821 40.2405 26.2547 40.2405 22.7371V13.6273C40.2405 4.33722 34.6463 2.08234 26.2551 2.08234H6.04394V4.69801L9.47262 7.04308V59.8975L5.41234 62.6034V65.219H25.8942ZM32.7516 52.4113C32.7516 57.6426 31.2177 59.8073 25.8942 59.8073H16.6909V59.3563C18.2248 58.8152 18.5857 58.0034 18.5857 56.3799V34.0115H25.0821C30.6763 34.0115 32.7516 36.5369 32.7516 41.7683V52.4113ZM30.8568 22.7371C30.8568 25.9841 29.0522 29.5017 25.2626 29.5017H18.5857V7.31367H25.2626C28.962 7.31367 30.8568 10.1999 30.8568 13.6273V22.7371Z" stroke="black" stroke-width="2" mask="url(#path-1-outside-1)"/>
<path d="M87.9734 51.0584H84.0034L80.9356 59.7171C75.7926 59.7171 70.7398 59.7171 65.5968 59.7171V59.2662C67.1307 58.725 67.4916 57.9132 67.4916 56.4701C67.4916 49.7956 67.4916 43.2114 67.4916 36.5369H76.1535L78.4995 41.3173H81.2063C81.2063 36.8977 81.2063 30.4939 81.2063 26.0743H78.4995L76.1535 31.035H67.4916C67.4916 23.0978 67.4916 15.1607 67.4916 7.31367H79.7627L82.2891 16.1528H86.8005V1.99215C75.7926 1.99215 65.687 1.99215 54.6792 1.99215V4.33723L58.1078 6.6823C58.1078 24.3606 58.1078 42.1291 58.1078 59.8975L54.0476 62.6034V65.219C65.4164 65.219 76.6949 65.219 87.9734 65.219V51.0584Z" stroke="black" stroke-width="2" mask="url(#path-1-outside-1)"/>
<path d="M125.868 7.40386V60.4387L121.898 62.6034V65.219H139.041V62.6034L134.981 60.4387V6.95289L138.41 4.60781V1.99215H104.033V4.60781L107.822 7.31367L102.679 55.4779C102.138 61.3406 99.1604 61.2504 96.1828 60.7995L95.7317 65.219C103.582 67.4739 108.905 64.9485 109.627 56.1995L114.589 7.40386H125.868Z" stroke="black" stroke-width="2" mask="url(#path-1-outside-1)"/>
<path d="M188.423 17.8665C188.423 7.67445 181.385 1 170.287 1C159.279 1 152.241 7.76464 152.241 17.8665V49.2545C152.241 59.3563 159.279 66.121 170.287 66.121C181.385 66.121 188.423 59.4465 188.423 49.2545V17.8665ZM161.625 17.8665C161.625 10.7411 164.332 7.04308 170.287 7.04308C176.332 7.04308 179.13 11.9136 179.13 17.8665V49.2545C179.13 55.1172 176.332 60.0779 170.287 60.0779C164.332 60.0779 161.625 56.2897 161.625 49.2545V17.8665Z" stroke="black" stroke-width="2" mask="url(#path-1-outside-1)"/>
<path d="M238.443 1.81176H232.217L231.495 5.23918H231.224C228.518 2.26273 224.457 1.36078 220.577 1.36078C209.931 1.36078 203.344 7.40386 203.344 18.1371C203.344 21.9253 203.344 45.6467 203.344 49.4349C203.344 60.8897 211.104 66.2112 221.209 66.2112C231.315 66.2112 238.984 61.3406 238.984 50.1564V46.729H229.6V50.0662C229.6 56.4701 227.706 60.2583 221.119 60.2583C215.705 60.2583 212.728 56.9211 212.728 49.4349C212.728 45.6467 212.728 21.9253 212.728 18.1371C212.728 10.1999 216.607 7.31367 220.848 7.31367C227.345 7.40386 229.059 12.094 229.059 17.7763V19.49H238.443V1.81176Z" stroke="black" stroke-width="2" mask="url(#path-1-outside-1)"/>
<path d="M275.256 4.60781L278.594 7.13328L267.135 37.3487L263.436 49.2545C263.436 35.8154 263.436 20.392 263.436 6.95289L266.774 4.60781V2.08234H250.894V4.60781L254.233 6.95289C254.233 24.6312 254.233 42.2192 254.233 59.8975L250.263 62.6936V65.219C255.496 65.219 262.173 65.219 267.406 65.219V62.6936L263.616 60.0779L274.624 31.1252L278.594 18.7685C278.594 31.8468 278.685 46.8192 278.685 59.8975L274.624 62.6936V65.219C279.858 65.219 286.534 65.219 291.768 65.219V62.6936L287.798 59.8975C287.798 42.2192 287.798 24.6312 287.798 6.95289L291.136 4.60781V2.08234H275.256V4.60781Z" stroke="black" stroke-width="2" mask="url(#path-1-outside-1)"/>
<path d="M316.301 7.40386H330.918V60.4387L326.948 62.6034V65.219H344.091V62.6034L340.031 60.4387V6.95289L343.459 4.60781V1.99215H303.759V4.60781L307.188 6.95289V60.4387L303.127 62.6034V65.219H320.361V62.6034L316.301 60.4387V7.40386Z" stroke="black" stroke-width="2" mask="url(#path-1-outside-1)"/>
<path d="M389.389 51.0584H385.419L382.351 59.7171C377.208 59.7171 372.156 59.7171 367.013 59.7171V59.2662C368.546 58.725 368.907 57.9132 368.907 56.4701C368.907 49.7956 368.907 43.2114 368.907 36.5369H377.569L379.915 41.3173H382.622C382.622 36.8977 382.622 30.4939 382.622 26.0743H379.915L377.569 31.035H368.907C368.907 23.0978 368.907 15.1607 368.907 7.31367H381.178L383.705 16.1528H388.216V1.99215C377.208 1.99215 367.103 1.99215 356.095 1.99215V4.33723L359.524 6.6823C359.524 24.3606 359.524 42.1291 359.524 59.8975L355.463 62.6034V65.219C366.832 65.219 378.111 65.219 389.389 65.219V51.0584Z" stroke="black" stroke-width="2" mask="url(#path-1-outside-1)"/>
<path d="M404.727 53.7642C404.185 59.176 401.749 60.0779 397.508 59.6269L396.967 74.5092H401.659L404.366 65.219C415.283 65.219 425.208 65.219 436.126 65.219L438.833 74.5092H443.525L442.893 59.6269H437.299V7.04308L440.728 4.69801V2.08234H405.719V4.69801L409.599 7.04308L404.727 53.7642ZM415.915 7.49406H428.186V59.6269H408.426V59.3563C411.133 57.823 411.223 55.6583 411.494 52.7721L415.915 7.49406Z" stroke="black" stroke-width="2" mask="url(#path-1-outside-1)"/>
<path d="M472.036 59.7171H466.172C466.172 49.8858 466.172 40.8663 466.172 31.1252H471.946C477.991 31.1252 480.337 34.3723 480.337 40.1447V50.6074C480.337 56.3799 478.172 59.7171 472.036 59.7171ZM489.721 40.1447C489.721 28.8703 481.691 25.8939 471.766 25.8939H466.172C466.172 20.1214 466.172 13.1764 466.172 7.40386L470.141 4.69801V2.08234C464.998 2.08234 458.231 2.08234 452.998 2.08234V4.69801L457.058 7.40386C457.058 24.9017 457.058 42.8506 457.058 60.3485L453.63 62.6936V65.219H471.946C481.691 65.219 489.721 61.6112 489.721 50.6074V40.1447ZM509.03 6.95289L512.459 4.60781V1.99215H496.488V4.60781L499.917 6.95289C499.917 24.6312 499.917 42.2192 499.917 59.8975L495.857 62.6034V65.219C501.09 65.219 507.857 65.219 513 65.219V62.6034L509.03 59.8975C509.03 42.2192 509.03 24.6312 509.03 6.95289Z" stroke="black" stroke-width="2" mask="url(#path-1-outside-1)"/>
<path d="M26.4103 107.716H22.6126L22.1723 109.807H22.0072C20.356 107.991 17.8792 107.441 15.5125 107.441C9.01787 107.441 5 111.128 5 117.675C5 119.986 5 134.456 5 136.766C5 143.754 9.73338 147 15.8978 147C22.0622 147 26.7405 144.029 26.7405 137.207V135.116H21.0164V137.152C21.0164 141.058 19.8606 143.369 15.8427 143.369C12.5404 143.369 10.7241 141.333 10.7241 136.766C10.7241 134.456 10.7241 119.986 10.7241 117.675C10.7241 112.833 13.0908 111.073 15.6776 111.073C19.6405 111.128 20.6862 113.989 20.6862 117.455V118.5H26.4103V107.716Z" stroke="black" stroke-width="2" mask="url(#path-1-outside-1)"/>
<path d="M62.993 111.293L64.8643 117.62H67.5062L67.286 107.826H44.885L44.6649 117.62H47.3068L49.068 111.293H53.196C53.196 121.801 53.196 132.31 53.196 142.819L50.7742 144.524V146.395C53.9115 146.395 58.2045 146.395 61.3968 146.395V144.524L58.9751 142.819C58.9751 132.31 58.9751 121.801 58.9751 111.293H62.993Z" stroke="black" stroke-width="2" mask="url(#path-1-outside-1)"/>
<path d="M85.8308 146.395C91.2247 146.395 95.7379 144.909 95.7379 138.582V132.09C95.7379 128.514 94.0317 126.533 91.4999 125.543C93.4813 124.717 94.5821 122.627 94.5821 120.481V114.924C94.5821 109.257 91.1697 107.881 86.051 107.881H73.7222V109.477L75.8137 110.907V143.149L73.3369 144.799V146.395H85.8308ZM90.0138 138.582C90.0138 141.773 89.0782 143.094 85.8308 143.094H80.2168V142.819C81.1525 142.488 81.3727 141.993 81.3727 141.003V127.358H85.3355C88.7479 127.358 90.0138 128.899 90.0138 132.09V138.582ZM88.858 120.481C88.858 122.461 87.7572 124.607 85.4456 124.607H81.3727V111.073H85.4456C87.7022 111.073 88.858 112.833 88.858 114.924V120.481Z" stroke="black" stroke-width="2" mask="url(#path-1-outside-1)"/>
<path d="M126.176 117.51C126.176 111.293 121.883 107.221 115.113 107.221C108.398 107.221 104.105 111.348 104.105 117.51V136.656C104.105 142.819 108.398 146.945 115.113 146.945C121.883 146.945 126.176 142.874 126.176 136.656V117.51ZM109.829 117.51C109.829 113.163 111.48 110.907 115.113 110.907C118.801 110.907 120.507 113.878 120.507 117.51V136.656C120.507 140.233 118.801 143.259 115.113 143.259C111.48 143.259 109.829 140.948 109.829 136.656V117.51Z" stroke="black" stroke-width="2" mask="url(#path-1-outside-1)"/>
<path d="M149.423 109.422L151.459 110.962L144.469 129.394L142.213 136.656C142.213 128.459 142.213 119.05 142.213 110.852L144.249 109.422V107.881H134.562V109.422L136.599 110.852C136.599 121.636 136.599 132.365 136.599 143.149L134.177 144.854V146.395C137.369 146.395 141.442 146.395 144.634 146.395V144.854L142.323 143.259L149.037 125.598L151.459 118.06C151.459 126.038 151.514 135.171 151.514 143.149L149.037 144.854V146.395C152.23 146.395 156.303 146.395 159.495 146.395V144.854L157.073 143.149C157.073 132.365 157.073 121.636 157.073 110.852L159.11 109.422V107.881H149.423V109.422Z" stroke="black" stroke-width="2" mask="url(#path-1-outside-1)"/>
<path d="M172.754 143.259C172.754 135.226 172.754 127.248 172.754 119.215L172.479 112.118H172.754C174.79 123.012 176.552 133.355 178.368 144.304C178.533 145.349 179.083 145.845 180.239 145.845H184.807L190.862 111.733H191.082L190.917 117.235C190.917 125.873 190.917 134.511 190.917 143.149L188.495 144.799V146.395C191.632 146.395 195.87 146.395 199.008 146.395V144.799L196.586 143.149C196.586 132.365 196.586 121.636 196.586 110.852L198.732 109.422V107.881C195.595 107.881 193.889 107.881 190.752 107.881C188.66 107.826 187.945 108.212 187.504 110.247L182.606 139.297H182.496C181.23 128.514 180.019 121.251 177.983 110.412C177.487 108.322 176.662 107.881 174.625 107.881H166.644V109.422L168.846 110.852C168.846 121.636 168.846 132.475 168.846 143.259L166.534 144.689V146.395C169.231 146.395 172.369 146.395 175.066 146.395V144.689L172.754 143.259Z" stroke="black" stroke-width="2" mask="url(#path-1-outside-1)"/>
<path d="M226.522 110.027C225.641 108.046 225.146 107.826 223.55 107.826H218.541V109.257L220.138 110.247L226.962 127.853L219.147 143.754L217.276 144.799V146.395H224.981V144.799L223.055 143.809L228.559 132.42L233.292 144.194C234.173 146.285 234.833 146.395 236.429 146.395H241.548V145.019L239.566 143.864L232.191 125.102L239.346 110.412L241.218 109.367V107.826H233.622V109.367L235.549 110.357L230.54 120.756L226.522 110.027Z" stroke="black" stroke-width="2" mask="url(#path-1-outside-1)"/>
<path d="M257.227 114.319H257.282L261.575 132.86H252.934L257.227 114.319ZM252.218 135.996H262.345L264.162 143.754L262.621 144.964V146.395H271.977V144.689L269.996 143.479L261.135 107.606H255.465C252.658 118.94 249.576 132.255 246.824 143.644L244.843 144.689V146.395H252.328V144.689L250.402 143.699L252.218 135.996Z" stroke="black" stroke-width="2" mask="url(#path-1-outside-1)"/>
<path d="M288.323 111.238C292.065 111.238 293.386 113.273 293.386 116.794V123.672C293.386 127.193 291.955 129.174 288.268 129.174H284.745C284.745 123.232 284.745 117.235 284.745 111.238H288.323ZM299.11 116.794C299.11 110.082 294.212 107.826 288.268 107.826H277.095V109.422L279.186 110.852C279.186 121.526 279.186 132.475 279.186 143.149L276.709 144.799V146.395C279.902 146.395 284.03 146.395 287.167 146.395V144.799L284.745 143.149C284.745 139.627 284.745 135.886 284.745 132.365H288.158C294.212 132.365 299.11 130.549 299.11 123.672V116.794Z" stroke="black" stroke-width="2" mask="url(#path-1-outside-1)"/>
<path d="M314.143 114.319H314.198L318.491 132.86H309.85L314.143 114.319ZM309.134 135.996H319.262L321.078 143.754L319.537 144.964V146.395H328.894V144.689L326.912 143.479L318.051 107.606H312.382C309.575 118.94 306.493 132.255 303.741 143.644L301.759 144.689V146.395H309.245V144.689L307.318 143.699L309.134 135.996Z" stroke="black" stroke-width="2" mask="url(#path-1-outside-1)"/>
<path d="M357.843 107.826C355.751 107.826 353.33 107.551 351.568 108.762C346.56 112.283 348.596 124.442 341.606 124.442V110.852L343.698 109.422V107.826H333.956V109.422L336.047 110.852C336.047 121.636 336.047 132.365 336.047 143.149L333.626 144.799V146.395C336.763 146.395 340.891 146.395 344.083 146.395V144.799L341.606 143.149C341.606 137.922 341.606 132.75 341.606 127.523H343.258C346.725 127.523 347.991 130.274 348.706 133.685L350.303 141.333C350.963 144.414 352.174 146.725 355.696 146.725C356.687 146.725 358.283 146.615 359.384 146.01V143.864C357.678 144.249 356.522 142.433 356.137 140.618L354.431 132.585C353.66 129.064 352.119 125.653 349.257 125.377V125.267C351.789 124.442 353.495 115.474 354.706 112.613C355.421 110.907 355.972 109.917 357.843 109.972V107.826Z" stroke="black" stroke-width="2" mask="url(#path-1-outside-1)"/>
<path d="M381.918 111.293L383.789 117.62H386.431L386.211 107.826H363.81L363.59 117.62H366.232L367.993 111.293H372.121C372.121 121.801 372.121 132.31 372.121 142.819L369.699 144.524V146.395C372.836 146.395 377.129 146.395 380.322 146.395V144.524L377.9 142.819C377.9 132.31 377.9 121.801 377.9 111.293H381.918Z" stroke="black" stroke-width="2" mask="url(#path-1-outside-1)"/>
<path d="M412.957 137.757H410.535L408.664 143.039C405.526 143.039 402.444 143.039 399.307 143.039V142.764C400.243 142.433 400.463 141.938 400.463 141.058C400.463 136.987 400.463 132.97 400.463 128.899H405.747L407.178 131.815H408.829C408.829 129.119 408.829 125.212 408.829 122.516H407.178L405.747 125.543H400.463C400.463 120.701 400.463 115.859 400.463 111.073H407.948L409.489 116.464H412.241V107.826C405.526 107.826 399.362 107.826 392.647 107.826V109.257L394.739 110.687C394.739 121.471 394.739 132.31 394.739 143.149L392.262 144.799V146.395C399.197 146.395 406.077 146.395 412.957 146.395V137.757Z" stroke="black" stroke-width="2" mask="url(#path-1-outside-1)"/>
<path d="M431.339 111.238C435.082 111.238 436.403 113.273 436.403 116.794V123.672C436.403 127.193 434.972 129.174 431.284 129.174H427.761C427.761 123.232 427.761 117.235 427.761 111.238H431.339ZM442.127 116.794C442.127 110.082 437.228 107.826 431.284 107.826H420.111V109.422L422.202 110.852C422.202 121.526 422.202 132.475 422.202 143.149L419.726 144.799V146.395C422.918 146.395 427.046 146.395 430.183 146.395V144.799L427.761 143.149C427.761 139.627 427.761 135.886 427.761 132.365H431.174C437.228 132.365 442.127 130.549 442.127 123.672V116.794Z" stroke="black" stroke-width="2" mask="url(#path-1-outside-1)"/>
<path d="M471.866 117.51C471.866 111.293 467.573 107.221 460.803 107.221C454.088 107.221 449.795 111.348 449.795 117.51V136.656C449.795 142.819 454.088 146.945 460.803 146.945C467.573 146.945 471.866 142.874 471.866 136.656V117.51ZM455.519 117.51C455.519 113.163 457.17 110.907 460.803 110.907C464.491 110.907 466.197 113.878 466.197 117.51V136.656C466.197 140.233 464.491 143.259 460.803 143.259C457.17 143.259 455.519 140.948 455.519 136.656V117.51Z" stroke="black" stroke-width="2" mask="url(#path-1-outside-1)"/>
<path d="M486.196 143.259C486.196 135.226 486.196 127.248 486.196 119.215L485.921 112.118H486.196C488.233 123.012 489.994 133.355 491.81 144.304C491.975 145.349 492.526 145.845 493.682 145.845H498.25L504.304 111.733H504.524L504.359 117.235C504.359 125.873 504.359 134.511 504.359 143.149L501.938 144.799V146.395C505.075 146.395 509.313 146.395 512.45 146.395V144.799L510.028 143.149C510.028 132.365 510.028 121.636 510.028 110.852L512.175 109.422V107.881C509.038 107.881 507.331 107.881 504.194 107.881C502.103 107.826 501.387 108.212 500.947 110.247L496.048 139.297H495.938C494.672 128.514 493.462 121.251 491.425 110.412C490.93 108.322 490.104 107.881 488.068 107.881H480.087V109.422L482.289 110.852C482.289 121.636 482.289 132.475 482.289 143.259L479.977 144.689V146.395C482.674 146.395 485.811 146.395 488.508 146.395V144.689L486.196 143.259Z" stroke="black" stroke-width="2" mask="url(#path-1-outside-1)"/>
</g>
<defs>
<filter id="filter0_d" x="0" y="0" width="518" height="156" filterUnits="userSpaceOnUse" color-interpolation-filters="sRGB">
<feFlood flood-opacity="0" result="BackgroundImageFix"/>
<feColorMatrix in="SourceAlpha" type="matrix" values="0 0 0 0 0 0 0 0 0 0 0 0 0 0 0 0 0 0 127 0"/>
<feOffset dy="4"/>
<feGaussianBlur stdDeviation="2"/>
<feColorMatrix type="matrix" values="0 0 0 0 0 0 0 0 0 0 0 0 0 0 0 0 0 0 0.25 0"/>
<feBlend mode="normal" in2="BackgroundImageFix" result="effect1_dropShadow"/>
<feBlend mode="normal" in="SourceGraphic" in2="effect1_dropShadow" result="shape"/>
</filter>
</defs>
</svg>
