<svg width="17" height="16" viewBox="0 0 17 16" fill="none" xmlns="http://www.w3.org/2000/svg">
<path fill-rule="evenodd" clip-rule="evenodd" d="M8.20588 12.18L10.4049 13.4739C11.165 13.9212 12.0898 13.2371 11.8846 12.3794L11.3104 9.98L13.1957 8.38781C13.8769 7.81249 13.5215 6.70073 12.6329 6.62723L10.1274 6.42L9.12297 4.10951C8.77442 3.30776 7.63735 3.30777 7.2888 4.10951L6.28434 6.42L3.77891 6.62723C2.89029 6.70073 2.5349 7.81249 3.2161 8.38781L5.10132 9.98L4.52718 12.3794C4.32194 13.2371 5.24675 13.9212 6.00686 13.4739L8.20588 12.18Z" fill="#9B8869"/>
<mask id="mask0" mask-type="alpha" maskUnits="userSpaceOnUse" x="2" y="3" width="12" height="11">
<path fill-rule="evenodd" clip-rule="evenodd" d="M8.20588 12.18L10.4049 13.4739C11.165 13.9212 12.0898 13.2371 11.8846 12.3794L11.3104 9.98L13.1957 8.38781C13.8769 7.81249 13.5215 6.70073 12.6329 6.62723L10.1274 6.42L9.12297 4.10951C8.77442 3.30776 7.63735 3.30777 7.2888 4.10951L6.28434 6.42L3.77891 6.62723C2.89029 6.70073 2.5349 7.81249 3.2161 8.38781L5.10132 9.98L4.52718 12.3794C4.32194 13.2371 5.24675 13.9212 6.00686 13.4739L8.20588 12.18Z" fill="white"/>
</mask>
<g mask="url(#mask0)">
<rect width="16.4118" height="16" fill="#9B8869" stroke="black"/>
</g>
</svg>
