<?xml version="1.0" standalone="no"?>
<!DOCTYPE svg PUBLIC "-//W3C//DTD SVG 20010904//EN"
 "http://www.w3.org/TR/2001/REC-SVG-20010904/DTD/svg10.dtd">
<svg version="1.0" xmlns="http://www.w3.org/2000/svg"
 width="700.000000pt" height="700.000000pt" viewBox="0 0 700.000000 700.000000"
 preserveAspectRatio="xMidYMid meet">
<metadata>
Created by potrace 1.11, written by Peter Selinger 2001-2013
</metadata>
<g transform="translate(0.000000,700.000000) scale(0.100000,-0.100000)"
fill="#000000" stroke="none">
<path d="M4102 5757 c-48 -15 -117 -87 -136 -143 -31 -91 -16 -177 42 -244 41
-49 80 -69 226 -122 61 -22 144 -51 184 -66 39 -14 72 -30 72 -35 0 -5 -16
-43 -35 -84 -19 -41 -35 -79 -35 -84 0 -5 -132 -9 -315 -9 -173 0 -695 0
-1160 0 -465 0 -854 0 -864 0 -17 0 -18 4 -10 33 5 17 11 43 14 57 10 53 14
72 20 90 5 17 9 30 20 85 3 11 20 87 38 169 37 165 36 195 -10 238 l-25 23
-536 0 c-493 0 -542 -2 -597 -18 -95 -30 -175 -77 -246 -147 -110 -109 -168
-240 -174 -392 -9 -262 140 -481 393 -576 60 -23 85 -26 244 -30 l178 -4 0
119 0 120 -146 1 c-168 1 -222 13 -297 68 -184 134 -180 432 7 561 88 61 109
63 559 65 223 1 409 -1 413 -4 3 -4 1 -29 -5 -55 -6 -26 -13 -57 -16 -68 -2
-11 -27 -114 -55 -230 -28 -115 -59 -246 -69 -290 -10 -44 -55 -234 -100 -422
-44 -188 -81 -344 -81 -346 0 -2 -26 0 -57 4 -77 9 -261 8 -326 -2 -29 -5 -68
-11 -87 -14 -104 -17 -272 -75 -380 -133 -169 -90 -350 -242 -450 -377 -25
-33 -48 -62 -51 -65 -15 -12 -111 -189 -139 -255 -40 -99 -78 -232 -94 -340
-13 -88 -14 -360 -1 -415 3 -14 8 -41 11 -60 39 -236 182 -506 368 -694 121
-123 181 -168 332 -253 131 -74 346 -144 493 -160 81 -10 274 -10 361 -1 172
17 422 112 585 221 200 133 374 332 473 537 86 181 105 241 139 450 10 58 10
300 1 367 -42 287 -182 572 -383 775 -83 84 -113 109 -212 178 -79 55 -218
127 -301 156 -37 13 -51 23 -47 33 3 8 8 28 11 45 2 17 21 100 42 184 l37 152
50 -61 c27 -34 54 -67 60 -73 6 -6 116 -139 244 -296 129 -157 248 -301 265
-321 17 -20 47 -55 66 -79 56 -69 478 -582 508 -617 15 -17 86 -103 157 -191
72 -88 144 -168 160 -178 28 -18 57 -19 385 -21 423 -2 387 0 387 -15 2 -92
51 -281 102 -401 192 -450 586 -764 1065 -847 130 -23 374 -21 491 4 102 22
241 68 325 108 321 153 579 430 714 767 28 70 71 234 84 325 10 64 9 313 -2
361 -3 17 -9 44 -12 60 -15 84 -72 243 -125 350 -296 601 -941 920 -1569 776
-47 -11 -105 -27 -129 -35 -24 -9 -49 -16 -55 -16 -7 0 -30 39 -53 88 -57 119
-181 377 -297 617 -54 110 -100 211 -102 225 -3 16 6 48 24 85 16 33 32 70 36
82 7 21 12 22 84 19 94 -3 217 14 296 43 139 49 286 164 333 259 54 111 27
251 -64 332 -81 71 -72 70 -677 69 -350 -1 -553 -5 -574 -12z m205 -1026 c1 0
-12 -28 -28 -61 -16 -34 -61 -131 -100 -216 -38 -86 -74 -163 -79 -172 -5 -10
-21 -44 -36 -77 -44 -99 -70 -156 -114 -250 -23 -49 -76 -164 -117 -255 -42
-91 -88 -192 -103 -225 -15 -33 -82 -179 -149 -323 -67 -145 -121 -268 -121
-273 0 -29 -40 14 -207 221 -53 66 -223 274 -253 310 -35 42 -179 219 -559
685 -85 105 -179 219 -209 255 -29 36 -59 72 -65 80 -34 43 -144 177 -158 193
-12 13 -15 30 -11 60 2 23 8 44 12 47 7 4 2291 5 2297 1z m274 -248 c64 -134
103 -216 164 -348 92 -197 108 -232 121 -256 13 -26 12 -27 -74 -85 -104 -70
-258 -220 -335 -325 -141 -192 -251 -478 -256 -661 -2 -52 -7 -53 -274 -52
-136 1 -249 3 -251 5 -2 2 7 27 19 54 46 99 88 192 157 345 38 85 85 187 103
225 48 102 105 226 105 230 0 2 20 46 44 97 24 51 65 140 91 198 26 58 64 141
84 185 21 44 82 178 136 298 54 119 100 217 102 217 2 0 31 -57 64 -127z
m-3156 -1180 c-4 -21 -36 -157 -71 -303 -35 -146 -68 -281 -73 -301 l-8 -36
114 -22 c63 -13 116 -21 118 -19 2 3 41 159 51 208 3 14 14 61 25 105 12 44
22 87 24 95 2 8 8 35 15 60 7 25 14 54 16 65 9 51 28 121 35 128 3 5 39 -11
78 -35 262 -156 394 -467 326 -764 -58 -254 -268 -459 -531 -519 -66 -16 -201
-21 -259 -10 -170 33 -284 94 -396 211 -314 331 -234 873 161 1086 100 54 201
81 329 87 l53 2 -7 -38z m4291 12 c122 -27 212 -70 299 -140 72 -59 82 -70
128 -132 131 -179 167 -406 97 -614 -36 -108 -78 -181 -150 -262 -232 -258
-608 -299 -900 -98 -104 71 -175 153 -230 260 -34 69 -66 168 -57 178 4 4 166
7 360 7 318 1 355 3 378 19 63 42 64 104 3 234 -82 175 -111 236 -183 386 -46
98 -66 149 -58 152 68 25 224 30 313 10z m-431 -328 c52 -115 97 -213 98 -219
2 -11 -467 -18 -484 -7 -15 9 36 156 78 228 43 74 189 229 203 215 5 -5 52
-103 105 -217z"/>
</g>
</svg>
